<svg 
 xmlns="http://www.w3.org/2000/svg"
 xmlns:xlink="http://www.w3.org/1999/xlink"
 width="22px" height="17px" viewBox="0 0 22 17">
<path fill-rule="evenodd"  fill="rgb(255, 255, 255)"
 d="M0.670,9.487 C0.510,9.327 0.430,9.087 0.430,8.927 C0.430,8.767 0.510,8.527 0.670,8.367 L1.790,7.247 C2.110,6.927 2.589,6.927 2.909,7.247 L2.989,7.327 L7.389,12.047 C7.549,12.208 7.789,12.208 7.949,12.047 L18.666,0.926 L18.746,0.926 L18.746,0.926 L18.746,0.926 C19.066,0.606 19.546,0.606 19.866,0.926 L20.986,2.046 C21.306,2.366 21.306,2.846 20.986,3.166 L20.986,3.166 L20.986,3.166 L8.188,16.448 C8.028,16.608 7.869,16.688 7.629,16.688 C7.389,16.688 7.229,16.608 7.069,16.448 L0.830,9.727 L0.670,9.487 Z"/>
</svg>