<svg 
 xmlns="http://www.w3.org/2000/svg"
 xmlns:xlink="http://www.w3.org/1999/xlink"
 width="92px" height="51px">
<path fill-rule="evenodd"  fill="rgb(255, 255, 255)"
 d="M77.634,34.999 C69.435,38.594 58.119,40.818 45.630,40.818 C33.140,40.818 21.824,38.594 13.625,34.999 C5.323,31.359 0.189,26.292 0.189,20.659 C0.189,15.027 5.323,9.959 13.625,6.319 C21.824,2.724 33.140,0.500 45.630,0.500 C70.726,0.500 91.070,9.526 91.070,20.659 C91.070,26.292 85.936,31.359 77.634,34.999 ZM45.850,28.276 C45.861,28.530 45.876,28.787 45.897,29.047 C45.928,29.390 45.964,29.725 46.005,30.052 C46.046,30.379 46.092,30.673 46.144,30.933 L49.203,30.933 C49.131,30.642 49.069,30.346 49.018,30.044 C48.966,29.743 48.930,29.437 48.910,29.125 C48.889,28.897 48.874,28.671 48.863,28.447 C48.853,28.224 48.848,27.998 48.848,27.769 C48.848,26.408 49.082,25.473 49.551,24.964 C50.020,24.456 50.563,24.201 51.181,24.201 L51.181,30.933 L54.101,30.933 L54.101,21.957 L50.579,21.957 C49.054,21.957 47.882,22.451 47.063,23.437 C46.244,24.424 45.835,25.796 45.835,27.552 C45.835,27.780 45.840,28.021 45.850,28.276 ZM50.205,1.430 C48.700,1.363 47.174,1.329 45.630,1.329 C33.250,1.329 22.051,3.525 13.952,7.077 C5.956,10.583 1.011,15.387 1.011,20.659 C1.011,25.931 5.956,30.736 13.952,34.242 C21.041,37.349 30.505,39.420 41.057,39.888 C35.339,38.578 31.212,34.888 31.212,30.531 C31.212,15.560 60.047,25.759 60.047,10.787 C60.047,6.431 55.922,2.740 50.205,1.430 ZM63.566,22.915 C62.644,22.141 61.534,21.754 60.236,21.754 C58.948,21.754 57.841,22.144 56.914,22.924 C55.986,23.702 55.523,24.876 55.523,26.445 C55.523,28.013 55.986,29.185 56.914,29.959 C57.841,30.733 58.948,31.125 60.236,31.135 L60.236,31.119 C61.534,31.119 62.644,30.733 63.566,29.959 C64.487,29.185 64.948,28.013 64.948,26.445 C64.948,24.866 64.487,23.689 63.566,22.915 ZM72.721,21.957 L66.370,21.957 L66.370,30.933 L69.290,30.933 L69.290,24.295 L72.721,24.295 L72.721,21.957 ZM60.900,28.767 C60.776,28.818 60.658,28.852 60.545,28.868 C60.431,28.884 60.328,28.891 60.236,28.891 C60.143,28.891 60.037,28.881 59.919,28.860 C59.801,28.839 59.680,28.803 59.556,28.751 C59.309,28.626 59.077,28.393 58.861,28.050 C58.644,27.707 58.536,27.172 58.536,26.445 C58.536,25.717 58.644,25.183 58.861,24.840 C59.077,24.497 59.309,24.263 59.556,24.139 C59.680,24.087 59.801,24.050 59.919,24.029 C60.037,24.009 60.143,23.998 60.236,23.998 C60.328,23.998 60.431,24.007 60.545,24.022 C60.658,24.037 60.776,24.071 60.900,24.123 C61.158,24.237 61.395,24.466 61.611,24.809 C61.827,25.152 61.935,25.697 61.935,26.445 C61.935,27.193 61.827,27.738 61.611,28.081 C61.395,28.424 61.158,28.652 60.900,28.767 ZM40.049,18.939 C39.761,18.919 39.467,18.867 39.168,18.783 C38.664,18.638 38.203,18.376 37.785,17.997 C37.368,17.617 37.160,17.023 37.160,16.213 C37.160,16.088 37.167,15.955 37.183,15.815 C37.198,15.675 37.227,15.537 37.268,15.402 C37.412,14.872 37.749,14.387 38.280,13.945 C38.810,13.504 39.647,13.283 40.791,13.283 L41.996,13.283 C42.078,13.418 42.138,13.548 42.174,13.673 C42.210,13.797 42.238,13.922 42.259,14.047 C42.279,14.161 42.289,14.275 42.289,14.390 C42.289,14.503 42.289,14.618 42.289,14.732 C42.289,14.753 42.289,14.768 42.289,14.779 C42.289,14.789 42.289,14.800 42.289,14.810 L42.289,15.168 L41.440,15.168 C41.399,15.168 41.355,15.168 41.308,15.168 C41.262,15.168 41.218,15.174 41.177,15.184 C40.930,15.194 40.700,15.254 40.489,15.363 C40.278,15.472 40.173,15.677 40.173,15.978 C40.173,16.176 40.255,16.350 40.420,16.501 C40.585,16.652 40.816,16.727 41.115,16.727 L42.877,16.727 L42.877,14.654 C42.877,14.540 42.874,14.423 42.869,14.303 C42.864,14.184 42.856,14.067 42.846,13.953 C42.794,13.475 42.611,13.036 42.297,12.636 C41.983,12.236 41.342,12.036 40.373,12.036 C40.281,12.036 40.188,12.036 40.095,12.036 C40.003,12.036 39.910,12.041 39.817,12.052 C39.591,12.062 39.356,12.089 39.114,12.130 C38.872,12.171 38.586,12.234 38.257,12.317 L38.257,9.995 C38.669,9.943 39.047,9.901 39.392,9.870 C39.737,9.839 40.080,9.824 40.420,9.824 C40.513,9.813 40.608,9.808 40.706,9.808 C40.804,9.808 40.904,9.808 41.007,9.808 C41.265,9.808 41.581,9.824 41.957,9.854 C42.333,9.886 42.722,9.969 43.124,10.104 C43.793,10.312 44.406,10.709 44.963,11.301 C45.519,11.894 45.797,12.815 45.797,14.070 L45.797,18.971 L40.775,18.971 C40.579,18.971 40.338,18.960 40.049,18.939 ZM32.818,12.846 C32.478,13.085 32.107,13.395 31.705,13.774 C31.303,14.153 30.902,14.639 30.500,15.231 C30.459,15.294 30.418,15.356 30.376,15.418 C30.335,15.480 30.294,15.542 30.253,15.605 L30.253,18.971 L27.332,18.971 L27.332,9.995 L30.253,9.995 L30.253,12.223 C30.345,12.109 30.446,11.990 30.554,11.865 C30.662,11.740 30.778,11.616 30.902,11.491 C31.108,11.283 31.327,11.081 31.558,10.883 C31.790,10.686 32.019,10.504 32.246,10.337 C32.349,10.275 32.447,10.216 32.540,10.159 C32.632,10.101 32.725,10.047 32.818,9.995 L35.738,9.995 L35.738,18.971 L32.818,18.971 L32.818,12.846 ZM13.658,16.384 L21.739,16.384 L21.739,9.995 L21.075,9.995 C19.993,9.995 19.238,10.226 18.811,10.689 C18.383,11.151 18.113,11.657 18.000,12.208 C17.948,12.478 17.917,12.740 17.907,12.995 C17.897,13.249 17.891,13.480 17.891,13.688 C17.891,13.709 17.891,13.730 17.891,13.751 C17.891,13.772 17.891,13.792 17.891,13.813 C17.891,13.938 17.915,14.176 17.961,14.529 C18.007,14.883 18.082,15.330 18.185,15.870 L14.940,15.870 C14.920,15.807 14.901,15.740 14.886,15.667 C14.871,15.595 14.853,15.516 14.832,15.434 C14.760,15.132 14.693,14.781 14.631,14.382 C14.569,13.981 14.538,13.558 14.538,13.112 C14.538,12.821 14.554,12.514 14.585,12.192 C14.616,11.870 14.672,11.548 14.755,11.226 C14.992,10.270 15.515,9.395 16.323,8.600 C17.132,7.806 18.453,7.408 20.286,7.408 L24.999,7.408 L24.999,16.384 L26.189,16.384 L26.189,18.971 L13.658,18.971 L13.658,16.384 ZM23.455,47.812 L21.928,47.812 L21.932,50.431 L21.369,50.431 L21.369,47.323 L23.460,47.323 L23.455,47.812 ZM25.906,47.456 C26.104,47.545 26.256,47.672 26.361,47.838 C26.467,48.004 26.520,48.201 26.520,48.429 C26.520,48.654 26.467,48.849 26.361,49.017 C26.256,49.184 26.104,49.312 25.906,49.401 C25.708,49.490 25.475,49.534 25.208,49.534 L24.512,49.534 L24.512,50.431 L23.940,50.431 L23.940,47.323 L25.208,47.323 C25.475,47.323 25.708,47.367 25.906,47.456 ZM24.512,47.812 L24.512,49.046 L25.181,49.046 C25.431,49.046 25.620,48.993 25.749,48.886 C25.879,48.780 25.943,48.627 25.943,48.429 C25.943,48.230 25.879,48.078 25.749,47.971 C25.620,47.865 25.431,47.812 25.181,47.812 L24.512,47.812 ZM27.229,47.323 L28.140,49.148 L29.078,47.323 L29.641,47.323 L28.303,49.831 C28.185,50.053 28.045,50.220 27.882,50.331 C27.720,50.442 27.543,50.498 27.352,50.498 C27.199,50.498 27.048,50.465 26.898,50.400 L27.039,49.947 C27.160,49.986 27.259,50.005 27.339,50.005 C27.524,50.005 27.676,49.909 27.797,49.716 L27.845,49.641 L26.617,47.323 L27.229,47.323 ZM32.767,50.431 L32.204,50.431 L32.204,47.812 L30.606,47.812 L30.606,50.431 L30.042,50.431 L30.042,47.323 L32.767,47.323 L32.767,50.431 ZM36.364,50.431 L35.801,50.431 L35.801,47.812 L34.202,47.812 L34.202,50.431 L33.639,50.431 L33.639,47.323 L36.364,47.323 L36.364,50.431 ZM38.790,47.323 L40.181,50.431 L39.582,50.431 L39.274,49.712 L37.733,49.712 L37.430,50.431 L36.840,50.431 L38.227,47.323 L38.790,47.323 ZM39.085,49.259 L38.504,47.900 L37.927,49.259 L39.085,49.259 ZM42.431,48.624 L43.021,48.624 L43.906,47.323 L44.514,47.323 L43.461,48.828 L44.553,50.431 L43.906,50.431 L43.003,49.121 L42.431,49.121 L42.431,50.431 L41.867,50.431 L41.867,47.323 L42.431,47.323 L42.431,48.624 ZM45.513,47.485 C45.765,47.347 46.049,47.279 46.363,47.279 C46.677,47.279 46.960,47.347 47.212,47.485 C47.465,47.623 47.663,47.813 47.807,48.056 C47.950,48.298 48.022,48.572 48.022,48.877 C48.022,49.182 47.950,49.456 47.807,49.698 C47.663,49.941 47.465,50.131 47.212,50.269 C46.960,50.407 46.677,50.476 46.363,50.476 C46.049,50.476 45.765,50.407 45.513,50.269 C45.260,50.131 45.062,49.940 44.919,49.696 C44.775,49.452 44.703,49.179 44.703,48.877 C44.703,48.575 44.775,48.302 44.919,48.058 C45.062,47.813 45.260,47.623 45.513,47.485 ZM45.420,49.439 C45.514,49.606 45.643,49.736 45.808,49.829 C45.972,49.923 46.157,49.969 46.363,49.969 C46.568,49.969 46.753,49.923 46.917,49.829 C47.082,49.736 47.211,49.606 47.305,49.439 C47.399,49.271 47.446,49.084 47.446,48.877 C47.446,48.670 47.399,48.482 47.305,48.315 C47.211,48.149 47.082,48.018 46.917,47.924 C46.753,47.831 46.568,47.785 46.363,47.785 C46.157,47.785 45.972,47.831 45.808,47.924 C45.643,48.018 45.514,48.149 45.420,48.315 C45.326,48.482 45.280,48.670 45.280,48.877 C45.280,49.084 45.326,49.271 45.420,49.439 ZM50.351,49.379 L51.558,47.323 L52.024,47.323 L52.033,50.431 L51.487,50.431 L51.483,48.371 L50.470,50.076 L50.215,50.076 L49.202,48.397 L49.202,50.431 L48.661,50.431 L48.661,47.323 L49.132,47.323 L50.351,49.379 ZM55.626,50.431 L55.062,50.431 L55.062,47.812 L53.464,47.812 L53.464,50.431 L52.901,50.431 L52.901,47.323 L55.626,47.323 L55.626,50.431 ZM58.052,47.323 L59.443,50.431 L58.844,50.431 L58.536,49.712 L56.995,49.712 L56.691,50.431 L56.101,50.431 L57.488,47.323 L58.052,47.323 ZM58.347,49.259 L57.766,47.900 L57.189,49.259 L58.347,49.259 ZM60.486,48.606 L62.080,48.606 L62.080,47.323 L62.652,47.323 L62.652,50.431 L62.080,50.431 L62.080,49.099 L60.486,49.099 L60.486,50.431 L59.914,50.431 L59.914,47.323 L60.486,47.323 L60.486,48.606 ZM64.083,49.530 L65.739,47.323 L66.271,47.323 L66.271,50.431 L65.708,50.431 L65.708,48.229 L64.052,50.431 L63.520,50.431 L63.520,47.323 L64.083,47.323 L64.083,49.530 ZM67.911,46.950 C67.778,46.840 67.710,46.681 67.707,46.471 L68.107,46.471 C68.110,46.580 68.145,46.665 68.213,46.724 C68.280,46.783 68.379,46.813 68.508,46.813 C68.634,46.813 68.733,46.783 68.805,46.724 C68.877,46.665 68.914,46.580 68.917,46.471 L69.314,46.471 C69.311,46.678 69.241,46.837 69.104,46.948 C68.968,47.059 68.769,47.114 68.508,47.114 C68.244,47.114 68.045,47.060 67.911,46.950 ZM67.702,49.530 L69.358,47.323 L69.890,47.323 L69.890,50.431 L69.327,50.431 L69.327,48.229 L67.671,50.431 L67.139,50.431 L67.139,47.323 L67.702,47.323 L67.702,49.530 Z"/>
</svg>