<svg 
 xmlns="http://www.w3.org/2000/svg"
 xmlns:xlink="http://www.w3.org/1999/xlink"
 width="17px" height="17px" viewBox="0 0 17 17">
<path fill-rule="evenodd"  fill="rgb(71, 181, 182)"
 d="M16.401,12.176 L14.412,10.187 C13.863,9.638 12.971,9.638 12.423,10.187 L11.519,11.091 C11.103,11.506 10.427,11.506 10.012,11.091 L6.093,7.169 C5.677,6.752 5.676,6.079 6.093,5.662 C6.239,5.517 6.657,5.098 6.997,4.758 C7.543,4.212 7.551,3.323 6.997,2.768 L5.008,0.786 C4.460,0.238 3.567,0.238 3.020,0.785 C2.611,1.191 2.479,1.322 2.296,1.503 C0.318,3.481 0.318,6.698 2.296,8.676 L8.505,14.888 C10.487,16.870 13.695,16.870 15.677,14.888 L16.401,14.165 C16.949,13.616 16.949,12.724 16.401,12.176 ZM3.682,1.449 C3.865,1.267 4.162,1.267 4.346,1.450 L6.334,3.432 C6.517,3.615 6.517,3.912 6.334,4.095 L6.003,4.427 L3.352,1.776 L3.682,1.449 ZM9.168,14.225 L2.959,8.013 C1.429,6.483 1.345,4.081 2.700,2.450 L5.343,5.093 C4.648,5.880 4.677,7.079 5.430,7.832 L9.349,11.754 C9.349,11.754 9.349,11.754 9.349,11.754 C10.100,12.505 11.300,12.536 12.088,11.841 L14.731,14.484 C13.105,15.837 10.708,15.766 9.168,14.225 ZM15.738,13.502 L15.406,13.833 L12.754,11.181 L13.086,10.850 C13.269,10.667 13.566,10.667 13.749,10.850 L15.738,12.839 C15.921,13.022 15.921,13.319 15.738,13.502 Z"/>
</svg>