<svg 
 xmlns="http://www.w3.org/2000/svg"
 xmlns:xlink="http://www.w3.org/1999/xlink"
 width="17px" height="20px" viewBox="0 0 17 20">
<path fill-rule="evenodd"  fill="rgb(71, 181, 182)"
 d="M15.300,20.000 L1.700,20.000 C0.764,20.000 -0.000,19.212 -0.000,18.242 L-0.000,7.695 C-0.000,7.695 -0.000,7.694 -0.000,7.694 C0.000,7.549 0.054,7.400 0.160,7.287 C0.162,7.285 0.164,7.283 0.166,7.280 L2.267,5.108 L2.267,0.586 C2.267,0.262 2.520,-0.000 2.833,-0.000 L14.167,-0.000 C14.480,-0.000 14.733,0.262 14.733,0.586 L14.733,5.108 L16.834,7.280 C16.941,7.391 17.000,7.543 17.000,7.694 C17.000,7.694 17.000,7.695 17.000,7.695 L17.000,18.242 C17.000,19.211 16.238,20.000 15.300,20.000 ZM15.065,18.828 L10.532,14.140 L6.468,14.140 L1.935,18.828 L15.065,18.828 ZM2.267,6.766 L1.368,7.695 L2.267,8.624 L2.267,6.766 ZM1.133,9.110 L1.133,17.999 L5.432,13.554 L1.133,9.110 ZM13.600,5.352 C13.600,5.351 13.600,5.351 13.600,5.351 L13.600,1.172 L3.400,1.172 L3.400,5.351 C3.400,5.351 3.400,5.351 3.400,5.352 L3.400,9.796 L6.468,12.969 L10.532,12.969 L13.600,9.796 L13.600,5.352 ZM14.733,6.766 L14.733,8.624 L15.632,7.695 L14.733,6.766 ZM15.867,9.110 L11.568,13.554 L15.867,17.999 L15.867,9.110 ZM6.976,8.914 C7.817,9.471 8.859,9.524 9.836,9.059 C10.121,8.924 10.457,9.052 10.588,9.346 C10.719,9.640 10.594,9.988 10.310,10.124 C8.974,10.759 7.536,10.677 6.365,9.901 C5.218,9.141 4.533,7.849 4.533,6.445 C4.533,4.183 6.313,2.343 8.500,2.343 C10.687,2.343 12.467,4.183 12.467,6.445 C12.467,7.414 11.704,8.203 10.767,8.203 C10.332,8.203 9.934,8.033 9.633,7.754 C9.332,8.033 8.935,8.203 8.500,8.203 C7.563,8.203 6.800,7.414 6.800,6.445 C6.800,5.476 7.563,4.687 8.500,4.687 C9.437,4.687 10.200,5.476 10.200,6.445 C10.200,6.448 10.200,6.451 10.200,6.454 C10.214,6.807 10.481,7.031 10.767,7.031 C11.079,7.031 11.333,6.768 11.333,6.445 C11.333,4.830 10.062,3.516 8.500,3.516 C6.938,3.516 5.667,4.830 5.667,6.445 C5.667,7.448 6.156,8.371 6.976,8.914 ZM8.500,5.859 C8.187,5.859 7.933,6.122 7.933,6.445 C7.933,6.768 8.187,7.031 8.500,7.031 C8.781,7.031 9.015,6.818 9.059,6.539 C9.053,6.485 9.054,6.431 9.063,6.378 C9.030,6.086 8.790,5.859 8.500,5.859 Z"/>
</svg>