<svg 
 xmlns="http://www.w3.org/2000/svg"
 xmlns:xlink="http://www.w3.org/1999/xlink"
 width="21px" height="24px">
<path fill-rule="evenodd"  fill="rgb(255, 255, 255)"
 d="M-0.005,0.004 L-0.005,18.997 C-0.005,21.756 2.132,23.994 4.768,23.994 L16.224,23.994 C18.860,23.994 20.997,21.756 20.997,18.997 L20.997,0.004 L-0.005,0.004 ZM19.088,18.997 C19.088,20.653 17.806,21.995 16.224,21.995 L4.768,21.995 C3.186,21.995 1.904,20.653 1.904,18.997 L1.904,2.003 L19.088,2.003 L19.088,18.997 ZM10.496,12.999 C13.132,12.999 15.269,10.761 15.269,8.001 L15.269,6.002 L13.360,6.002 L13.360,8.001 C13.360,9.657 12.078,10.999 10.496,10.999 C8.914,10.999 7.632,9.657 7.632,8.001 L7.632,6.002 L5.723,6.002 L5.723,8.001 C5.723,10.761 7.860,12.999 10.496,12.999 Z"/>
</svg>