<svg 
 xmlns="http://www.w3.org/2000/svg"
 xmlns:xlink="http://www.w3.org/1999/xlink"
 width="28px" height="24px" viewBox="0 0 28 24">
<path fill-rule="evenodd"  fill="rgb(255, 255, 255)"
 d="M26.005,1.933 C24.682,0.641 22.854,-0.006 20.521,-0.006 C19.875,-0.006 19.216,0.106 18.545,0.331 C17.873,0.554 17.247,0.857 16.670,1.237 C16.092,1.617 15.595,1.974 15.178,2.308 C14.761,2.641 14.366,2.996 13.991,3.370 C13.615,2.996 13.220,2.641 12.803,2.308 C12.386,1.974 11.889,1.617 11.311,1.237 C10.733,0.857 10.108,0.554 9.436,0.331 C8.765,0.106 8.106,-0.006 7.460,-0.006 C5.127,-0.006 3.299,0.641 1.976,1.933 C0.654,3.225 -0.008,5.017 -0.008,7.310 C-0.008,8.008 0.114,8.727 0.359,9.466 C0.604,10.207 0.883,10.837 1.195,11.358 C1.508,11.879 1.862,12.387 2.257,12.882 C2.653,13.377 2.943,13.719 3.125,13.906 C3.307,14.094 3.450,14.229 3.554,14.312 L13.303,23.723 C13.491,23.910 13.720,24.004 13.991,24.004 C14.261,24.004 14.491,23.910 14.678,23.723 L24.411,14.344 C26.797,11.957 27.989,9.613 27.989,7.310 C27.989,5.017 27.328,3.225 26.005,1.933 ZM23.052,12.874 L13.991,21.612 L4.914,12.859 C2.966,10.910 1.992,9.060 1.992,7.310 C1.992,6.466 2.104,5.721 2.328,5.075 C2.552,4.428 2.838,3.915 3.187,3.535 C3.536,3.154 3.960,2.844 4.460,2.605 C4.960,2.365 5.450,2.203 5.929,2.120 C6.408,2.037 6.919,1.995 7.460,1.995 C8.002,1.995 8.585,2.128 9.210,2.394 C9.835,2.659 10.410,2.993 10.936,3.394 C11.462,3.795 11.913,4.171 12.288,4.520 C12.663,4.869 12.975,5.189 13.225,5.481 C13.412,5.710 13.668,5.825 13.991,5.825 C14.314,5.825 14.568,5.710 14.756,5.481 C15.006,5.189 15.319,4.869 15.694,4.520 C16.069,4.171 16.519,3.796 17.045,3.394 C17.571,2.993 18.146,2.659 18.771,2.394 C19.396,2.128 19.980,1.995 20.521,1.995 C21.063,1.995 21.573,2.037 22.052,2.120 C22.532,2.203 23.021,2.365 23.521,2.605 C24.021,2.844 24.445,3.155 24.794,3.535 C25.143,3.915 25.430,4.428 25.654,5.075 C25.877,5.721 25.989,6.466 25.989,7.310 C25.989,9.060 25.010,10.915 23.052,12.874 Z"/>
</svg>